<svg width="24" height="24" viewBox="0 0 24 24" fill="none" xmlns="http://www.w3.org/2000/svg">
<path d="M21.7315 1.11596C21.6403 1.0166 21.5121 0.959961 21.3773 0.959961H2.6227C2.48782 0.959961 2.35966 1.0166 2.26846 1.11596C2.17726 1.21532 2.13262 1.34876 2.14462 1.48268L3.83422 20.4076C3.85198 20.6054 3.98974 20.772 4.18078 20.8267L11.8656 23.0217C11.9083 23.0337 11.9529 23.04 11.9971 23.04C12.0413 23.04 12.0859 23.0337 12.1286 23.0217L19.8201 20.8267C20.0112 20.772 20.1489 20.6054 20.1667 20.4076L21.8553 1.48268C21.8673 1.34876 21.8222 1.21532 21.7315 1.11596ZM5.75998 13.9219L9.11998 14.854V5.27996H11.04V17.76L5.75998 16.2955V13.9219ZM18.2659 10.56L17.76 16.44L12.96 17.76V15.5515L16.2 14.6611L16.32 12.8611L12.96 13.44V5.27996H18.72L18.5544 7.19996H14.88V11.04L18.2659 10.56Z" fill="#62748E"/>
</svg>
